<svg width="120" height="34" viewBox="0 0 120 34" fill="none" xmlns="http://www.w3.org/2000/svg">
<path d="M21.72 24.725C22.095 26.13 22.695 26.675 23.755 26.675C24.855 26.675 25.43 26.015 25.43 24.725V0.755H32.325V24.725C32.325 28.1 31.885 29.565 30.175 31.275C28.94 32.515 26.66 33.47 23.785 33.47C21.465 33.47 19.24 32.7 17.825 31.28C16.58 30.03 15.895 28.755 14.83 24.725L10.6 8.745C10.23 7.34 9.63 6.795 8.57 6.795C7.47 6.795 6.89 7.455 6.89 8.745V32.715H0V8.745C0 5.37 0.44 3.905 2.15 2.195C3.385 0.955001 5.665 0 8.54 0C10.86 0 13.085 0.769999 14.5 2.19C15.745 3.44 16.425 4.715 17.495 8.745L21.72 24.725ZM112.875 32.715L104.92 7.815C104.86 7.5791 104.758 7.35569 104.62 7.155C104.508 7.01878 104.365 6.91074 104.204 6.83954C104.042 6.76834 103.866 6.73596 103.69 6.745C103.515 6.73675 103.34 6.76952 103.179 6.84069C103.018 6.91186 102.877 7.01947 102.765 7.155C102.627 7.35564 102.525 7.57906 102.465 7.815L94.51 32.715H87.385L96.08 5.515C96.53 4.1 97.18 2.895 98 2.095C99.41 0.719998 101.07 0 103.69 0C106.315 0 107.975 0.720001 109.385 2.1C110.205 2.9 110.855 4.1 111.305 5.515L120 32.715H112.875ZM77.655 32.715C82.17 32.715 84.375 31.755 86.115 30.025C88.04 28.11 88.96 26.015 88.96 22.89C88.96 20.125 87.95 17.57 86.41 16.04C84.395 14.04 81.895 13.405 77.815 13.405H72.105C69.925 13.405 69.055 13.14 68.365 12.465C67.895 12 67.67 11.315 67.67 10.5C67.67 9.66 67.87 8.83 68.45 8.26C68.965 7.76 69.665 7.525 71.005 7.525H87.51V0.755H72.265C67.75 0.755 65.55 1.715 63.81 3.445C61.885 5.36 60.96 7.455 60.96 10.58C60.96 13.345 61.975 15.9 63.51 17.43C65.53 19.43 68.03 20.065 72.11 20.065H77.815C80 20.065 80.865 20.33 81.555 21.005C82.03 21.47 82.255 22.155 82.255 22.97C82.255 23.815 82.05 24.645 81.47 25.21C80.96 25.71 80.26 25.945 78.92 25.945H61.895L55.365 5.515C54.915 4.1 54.265 2.895 53.445 2.095C52.035 0.719998 50.37 0 47.75 0C45.13 0 43.465 0.720001 42.06 2.1C41.235 2.9 40.59 4.1 40.135 5.515L31.445 32.715H38.565L46.525 7.815C46.5855 7.5791 46.687 7.35569 46.825 7.155C46.9367 7.01947 47.0785 6.91186 47.239 6.84069C47.3996 6.76952 47.5746 6.73675 47.75 6.745C48.16 6.745 48.46 6.885 48.68 7.155C48.8181 7.35559 48.9197 7.57903 48.98 7.815L56.935 32.715H77.655Z" fill="#FF342B"/>
</svg>
